<svg xmlns="http://www.w3.org/2000/svg" width="640" height="320" viewBox="0 0 640 320" fill="none" role="img" aria-labelledby="title desc">
  <title id="title">wow-skills icon</title>
  <desc id="desc">A modular skill card icon with connected nodes and a check mark.</desc>
  <rect width="640" height="320" rx="36" fill="#F6F8FA"/>
  <rect x="86" y="54" width="468" height="212" rx="28" fill="#FFFFFF" stroke="#D0D7DE" stroke-width="4"/>
  <rect x="118" y="86" width="138" height="24" rx="12" fill="#0F172A"/>
  <rect x="118" y="130" width="230" height="14" rx="7" fill="#D0D7DE"/>
  <rect x="118" y="156" width="180" height="14" rx="7" fill="#D0D7DE"/>
  <rect x="118" y="182" width="206" height="14" rx="7" fill="#D0D7DE"/>
  <rect x="118" y="208" width="150" height="14" rx="7" fill="#D0D7DE"/>
  <circle cx="416" cy="128" r="34" fill="#E8F1FF" stroke="#2563EB" stroke-width="4"/>
  <path d="M402 128.5L411.5 138L431 118.5" stroke="#2563EB" stroke-width="8" stroke-linecap="round" stroke-linejoin="round"/>
  <circle cx="416" cy="212" r="18" fill="#DBEAFE" stroke="#2563EB" stroke-width="4"/>
  <circle cx="486" cy="168" r="18" fill="#DBEAFE" stroke="#2563EB" stroke-width="4"/>
  <path d="M434 134L472 160" stroke="#2563EB" stroke-width="4" stroke-linecap="round"/>
  <path d="M416 146V194" stroke="#2563EB" stroke-width="4" stroke-linecap="round"/>
  <path d="M434 212H468" stroke="#2563EB" stroke-width="4" stroke-linecap="round"/>
  <path d="M478 184C478 184 500 194 506 210" stroke="#2563EB" stroke-width="4" stroke-linecap="round"/>
  <circle cx="154" cy="240" r="10" fill="#22C55E"/>
  <path d="M149 240.5L153 244.5L160 235.5" stroke="#FFFFFF" stroke-width="3.5" stroke-linecap="round" stroke-linejoin="round"/>
  <rect x="178" y="232" width="146" height="12" rx="6" fill="#94A3B8"/>
  <rect x="86" y="54" width="468" height="212" rx="28" stroke="#CBD5E1" stroke-width="2"/>
</svg>
