<svg xmlns="http://www.w3.org/2000/svg" width="760" height="220" viewBox="0 0 760 220" fill="none" role="img" aria-labelledby="title desc">
  <title id="title">wow-skills logo</title>
  <desc id="desc">A logo card for wow-skills that stays readable on light and dark backgrounds.</desc>
  <defs>
    <linearGradient id="mark" x1="42" y1="42" x2="174" y2="178" gradientUnits="userSpaceOnUse">
      <stop stop-color="#111827"/>
      <stop offset="1" stop-color="#0F766E"/>
    </linearGradient>
    <linearGradient id="accent" x1="112" y1="80" x2="158" y2="158" gradientUnits="userSpaceOnUse">
      <stop stop-color="#A3E635"/>
      <stop offset="1" stop-color="#22C55E"/>
    </linearGradient>
  </defs>
  <rect x="10" y="10" width="740" height="200" rx="36" fill="#F8FAFC"/>
  <rect x="10" y="10" width="740" height="200" rx="36" stroke="#D0D7DE" stroke-width="2"/>
  <g transform="translate(40 34)">
    <rect width="152" height="152" rx="36" fill="url(#mark)"/>
    <path d="M34 48L56 108L76 68L96 108L118 48" stroke="#F8FAFC" stroke-width="15" stroke-linecap="round" stroke-linejoin="round"/>
    <circle cx="56" cy="108" r="7" fill="#F8FAFC"/>
    <circle cx="96" cy="108" r="7" fill="#F8FAFC"/>
    <path d="M98 122L112 136L136 104" stroke="url(#accent)" stroke-width="11" stroke-linecap="round" stroke-linejoin="round"/>
  </g>
  <g transform="translate(224 68)">
    <text x="0" y="54" fill="#111827" font-family="Inter, ui-sans-serif, system-ui, -apple-system, BlinkMacSystemFont, Segoe UI, sans-serif" font-size="58" font-weight="800">wow-skills</text>
    <text x="4" y="92" fill="#475569" font-family="Inter, ui-sans-serif, system-ui, -apple-system, BlinkMacSystemFont, Segoe UI, sans-serif" font-size="20" font-weight="500">verified skills for code and work</text>
    <rect x="4" y="114" width="64" height="8" rx="4" fill="#22C55E"/>
    <rect x="78" y="114" width="42" height="8" rx="4" fill="#0F766E"/>
    <rect x="130" y="114" width="26" height="8" rx="4" fill="#111827"/>
  </g>
</svg>
